<svg xmlns="http://www.w3.org/2000/svg" xmlns:xlink="http://www.w3.org/1999/xlink" width="500" zoomAndPan="magnify" viewBox="0 0 375 374.999991" height="500" preserveAspectRatio="xMidYMid meet" version="1.0"><defs><g/><clipPath id="ba346148c9"><path d="M 129 117.542969 L 136 117.542969 L 136 126 L 129 126 Z M 129 117.542969 " clip-rule="nonzero"/></clipPath><clipPath id="31a7e36018"><path d="M 118.867188 159 L 125 159 L 125 167 L 118.867188 167 Z M 118.867188 159 " clip-rule="nonzero"/></clipPath><clipPath id="bd063b5742"><path d="M 245 120 L 256.117188 120 L 256.117188 131 L 245 131 Z M 245 120 " clip-rule="nonzero"/></clipPath><clipPath id="ef344cff95"><path d="M 245 141 L 256.117188 141 L 256.117188 154 L 245 154 Z M 245 141 " clip-rule="nonzero"/></clipPath><clipPath id="887765e359"><path d="M 175 175 L 187 175 L 187 185.042969 L 175 185.042969 Z M 175 175 " clip-rule="nonzero"/></clipPath><clipPath id="ae9afd7377"><path d="M 245 164 L 256.117188 164 L 256.117188 179 L 245 179 Z M 245 164 " clip-rule="nonzero"/></clipPath></defs><path fill="#4cacef" d="M 175.632812 128.1875 C 175.632812 132.53125 175.632812 136.714844 175.632812 140.742188 C 179.101562 140.382812 182.570312 139.835938 186.039062 139.171875 C 186.039062 135.292969 186.039062 131.304688 186.039062 127.199219 C 182.570312 127.617188 179.101562 127.960938 175.632812 128.1875 " fill-opacity="1" fill-rule="nonzero"/><path fill="#4cacef" d="M 175.632812 155.578125 C 175.632812 159.195312 175.632812 162.652344 175.632812 165.949219 C 179.101562 165.511719 182.570312 164.84375 186.039062 164.035156 C 186.039062 160.683594 186.039062 157.21875 186.039062 153.640625 C 182.570312 154.460938 179.101562 155.132812 175.632812 155.578125 " fill-opacity="1" fill-rule="nonzero"/><path fill="#4cacef" d="M 139.828125 151.90625 C 139.828125 149.742188 139.828125 147.507812 139.828125 145.210938 C 137.746094 144.613281 135.667969 143.792969 133.585938 142.710938 C 133.585938 144.800781 133.585938 146.886719 133.585938 148.976562 C 135.667969 150.246094 137.746094 151.203125 139.828125 151.90625 " fill-opacity="1" fill-rule="nonzero"/><g clip-path="url(#ba346148c9)"><path fill="#004aad" d="M 135.386719 125.261719 C 135.386719 122.753906 135.386719 120.183594 135.386719 117.539062 C 133.277344 117.539062 131.167969 117.539062 129.058594 117.539062 C 129.058594 119.660156 129.058594 121.773438 129.058594 123.890625 C 131.167969 124.484375 133.277344 124.933594 135.386719 125.261719 " fill-opacity="1" fill-rule="nonzero"/></g><path fill="#004aad" d="M 163.699219 142.925781 C 163.699219 146.9375 163.699219 150.78125 163.699219 154.457031 C 167.167969 154.652344 170.632812 154.519531 174.101562 154.148438 C 174.101562 150.480469 174.101562 146.652344 174.101562 142.660156 C 170.632812 142.976562 167.167969 143.085938 163.699219 142.925781 " fill-opacity="1" fill-rule="nonzero"/><path fill="#4cacef" d="M 163.699219 167.875 C 163.699219 171.113281 163.699219 174.179688 163.699219 177.078125 C 167.167969 177.238281 170.632812 177.128906 174.101562 176.828125 C 174.101562 173.90625 174.101562 170.820312 174.101562 167.570312 C 170.632812 167.9375 167.167969 168.066406 163.699219 167.875 " fill-opacity="1" fill-rule="nonzero"/><path fill="#4cacef" d="M 162.167969 141.054688 C 162.167969 138.046875 162.167969 134.914062 162.167969 131.660156 C 159.597656 131.550781 157.023438 131.3125 154.453125 130.910156 C 154.453125 133.984375 154.453125 136.96875 154.453125 139.863281 C 157.023438 140.5 159.597656 140.878906 162.167969 141.054688 " fill-opacity="1" fill-rule="nonzero"/><path fill="#4cacef" d="M 162.167969 166.332031 C 162.167969 163.683594 162.167969 160.898438 162.167969 157.980469 C 159.375 157.742188 156.582031 157.234375 153.785156 156.386719 C 153.785156 159.273438 153.785156 162.0625 153.785156 164.753906 C 156.578125 165.59375 159.375 166.097656 162.167969 166.332031 " fill-opacity="1" fill-rule="nonzero"/><g clip-path="url(#31a7e36018)"><path fill="#4cacef" d="M 124.980469 166.332031 C 124.980469 164.398438 124.980469 162.367188 124.980469 160.238281 C 122.941406 160.066406 120.902344 159.695312 118.867188 159.074219 C 118.867188 161.183594 118.867188 163.21875 118.867188 165.179688 C 120.902344 165.792969 122.941406 166.160156 124.980469 166.332031 " fill-opacity="1" fill-rule="nonzero"/></g><path fill="#4cacef" d="M 150.234375 174.984375 C 150.234375 172.523438 150.234375 169.976562 150.234375 167.335938 C 147.476562 166.417969 144.722656 165.164062 141.96875 163.507812 C 141.96875 166.273438 141.96875 169.039062 141.96875 171.800781 C 144.722656 173.179688 147.476562 174.222656 150.234375 174.984375 " fill-opacity="1" fill-rule="nonzero"/><path fill="#004aad" d="M 199.5 125.292969 C 199.5 128.941406 199.5 132.558594 199.5 136.144531 C 202.96875 135.289062 206.4375 134.40625 209.90625 133.5625 C 209.90625 130.222656 209.90625 126.921875 209.90625 123.664062 C 206.4375 124.195312 202.96875 124.753906 199.5 125.292969 " fill-opacity="1" fill-rule="nonzero"/><path fill="#4cacef" d="M 199.5 149.917969 C 199.5 153.425781 199.5 156.902344 199.5 160.347656 C 202.96875 159.304688 206.4375 158.226562 209.90625 157.195312 C 209.90625 153.667969 209.90625 150.179688 209.90625 146.734375 C 206.4375 147.773438 202.96875 148.863281 199.5 149.917969 " fill-opacity="1" fill-rule="nonzero"/><path fill="#4cacef" d="M 187.566406 140.558594 C 187.566406 144.375 187.566406 148.085938 187.566406 151.6875 C 191.035156 150.835938 194.503906 149.855469 197.972656 148.824219 C 197.972656 145.296875 197.972656 141.726562 197.972656 138.117188 C 194.503906 138.996094 191.035156 139.832031 187.566406 140.558594 " fill-opacity="1" fill-rule="nonzero"/><path fill="#004aad" d="M 187.566406 165.140625 C 187.566406 168.472656 187.566406 171.691406 187.566406 174.808594 C 191.035156 174.109375 194.503906 173.304688 197.972656 172.460938 C 197.972656 169.121094 197.972656 165.738281 197.972656 162.316406 C 194.503906 163.332031 191.035156 164.304688 187.566406 165.140625 " fill-opacity="1" fill-rule="nonzero"/><g clip-path="url(#bd063b5742)"><path fill="#4cacef" d="M 245.710938 120.808594 C 245.710938 123.382812 245.710938 126.121094 245.710938 129.027344 C 249.179688 129.265625 252.648438 129.777344 256.117188 130.632812 C 256.117188 127.574219 256.117188 124.636719 256.117188 121.820312 C 252.648438 121.28125 249.179688 120.960938 245.710938 120.808594 " fill-opacity="1" fill-rule="nonzero"/></g><g clip-path="url(#ef344cff95)"><path fill="#4cacef" d="M 245.710938 141.148438 C 245.710938 144.488281 245.710938 147.996094 245.710938 151.667969 C 249.179688 151.957031 252.648438 152.582031 256.117188 153.625 C 256.117188 150.003906 256.117188 146.503906 256.117188 143.128906 C 252.648438 142.074219 249.179688 141.441406 245.710938 141.148438 " fill-opacity="1" fill-rule="nonzero"/></g><path fill="#4cacef" d="M 220.3125 142.351562 C 220.3125 138.992188 220.3125 135.742188 220.3125 132.59375 C 216.84375 133.320312 213.375 134.15625 209.90625 135.035156 C 209.90625 138.386719 209.90625 141.78125 209.90625 145.214844 C 213.375 144.183594 216.84375 143.203125 220.3125 142.351562 " fill-opacity="1" fill-rule="nonzero"/><path fill="#4cacef" d="M 233.777344 130.492188 C 233.777344 133.464844 233.777344 136.59375 233.777344 139.890625 C 237.246094 139.519531 240.710938 139.390625 244.179688 139.582031 C 244.179688 136.292969 244.179688 133.175781 244.179688 130.230469 C 240.710938 130.066406 237.246094 130.179688 233.777344 130.492188 " fill-opacity="1" fill-rule="nonzero"/><path fill="#4cacef" d="M 233.777344 153.5 C 233.777344 157.214844 233.777344 161.089844 233.777344 165.132812 C 237.246094 164.828125 240.710938 164.722656 244.179688 164.878906 C 244.179688 160.816406 244.179688 156.917969 244.179688 153.195312 C 240.710938 153.003906 237.246094 153.132812 233.777344 153.5 " fill-opacity="1" fill-rule="nonzero"/><path fill="#4cacef" d="M 232.246094 129.339844 C 232.246094 126.402344 232.246094 123.625 232.246094 121.007812 C 228.777344 121.234375 225.308594 121.578125 221.839844 121.996094 C 221.839844 124.855469 221.839844 127.824219 221.839844 130.910156 C 225.308594 130.246094 228.777344 129.699219 232.246094 129.339844 " fill-opacity="1" fill-rule="nonzero"/><path fill="#004aad" d="M 232.246094 152.050781 C 232.246094 148.386719 232.246094 144.882812 232.246094 141.535156 C 228.777344 141.980469 225.308594 142.652344 221.839844 143.472656 C 221.839844 146.855469 221.839844 150.351562 221.839844 153.964844 C 225.308594 153.15625 228.777344 152.488281 232.246094 152.050781 " fill-opacity="1" fill-rule="nonzero"/><path fill="#4cacef" d="M 220.3125 167.152344 C 220.3125 163.300781 220.3125 159.5625 220.3125 155.929688 C 216.84375 156.769531 213.375 157.738281 209.90625 158.753906 C 209.90625 162.296875 209.90625 165.875 209.90625 169.5 C 213.375 168.65625 216.84375 167.847656 220.3125 167.152344 " fill-opacity="1" fill-rule="nonzero"/><g clip-path="url(#887765e359)"><path fill="#4cacef" d="M 175.632812 176.679688 C 175.632812 179.617188 175.632812 182.394531 175.632812 185.011719 C 179.101562 184.785156 182.570312 184.441406 186.039062 184.023438 C 186.039062 181.167969 186.039062 178.195312 186.039062 175.109375 C 182.570312 175.773438 179.101562 176.320312 175.632812 176.679688 " fill-opacity="1" fill-rule="nonzero"/></g><path fill="#4cacef" d="M 199.5 172.082031 C 199.5 175.457031 199.5 178.804688 199.5 182.117188 C 202.96875 181.578125 206.4375 181.023438 209.90625 180.492188 C 209.90625 176.785156 209.90625 173.121094 209.90625 169.5 C 206.4375 170.34375 202.96875 171.226562 199.5 172.082031 " fill-opacity="1" fill-rule="nonzero"/><g clip-path="url(#ae9afd7377)"><path fill="#4cacef" d="M 245.710938 164.964844 C 245.710938 169.023438 245.710938 173.246094 245.710938 177.636719 C 249.179688 177.785156 252.648438 178.109375 256.117188 178.648438 C 256.117188 174.5 256.117188 170.472656 256.117188 166.570312 C 252.648438 165.714844 249.179688 165.203125 245.710938 164.964844 " fill-opacity="1" fill-rule="nonzero"/></g><path fill="#4cacef" d="M 232.246094 177.832031 C 232.246094 173.488281 232.246094 169.304688 232.246094 165.277344 C 228.777344 165.640625 225.308594 166.183594 221.839844 166.851562 C 221.839844 170.726562 221.839844 174.71875 221.839844 178.820312 C 225.308594 178.402344 228.777344 178.058594 232.246094 177.832031 " fill-opacity="1" fill-rule="nonzero"/><g fill="#004aad" fill-opacity="1"><g transform="translate(133.417277, 233.105829)"><g><path d="M 27.546875 -27.03125 L 13.203125 -27.03125 L 13.203125 -15.546875 L 25.6875 -15.546875 L 25.6875 -12.71875 L 13.203125 -12.71875 L 13.203125 0 L 3.59375 0 L 3.59375 -29.859375 L 27.546875 -29.859375 Z M 27.546875 -27.03125 "/></g></g></g><g fill="#004aad" fill-opacity="1"><g transform="translate(162.25824, 233.105829)"><g><path d="M 12.390625 0 L 3.59375 0 L 3.59375 -32.109375 L 12.390625 -32.109375 Z M 12.390625 0 "/></g></g></g><g fill="#004aad" fill-opacity="1"><g transform="translate(178.238345, 233.105829)"><g><path d="M 13.25 -2.828125 L 17.953125 -2.828125 C 19.109375 -2.828125 19.6875 -3.320312 19.6875 -4.3125 L 19.6875 -18.953125 C 19.6875 -19.953125 19.109375 -20.453125 17.953125 -20.453125 L 13.25 -20.453125 C 12.601562 -20.453125 12.191406 -20.351562 12.015625 -20.15625 C 11.847656 -19.96875 11.765625 -19.566406 11.765625 -18.953125 L 11.765625 -4.3125 C 11.765625 -3.675781 11.847656 -3.269531 12.015625 -3.09375 C 12.191406 -2.914062 12.601562 -2.828125 13.25 -2.828125 Z M 19.6875 -23.28125 L 28.515625 -23.28125 L 28.515625 0 L 19.6875 0 L 19.6875 -1.390625 C 19.238281 -0.460938 18.320312 0 16.9375 0 L 6.71875 0 C 4.1875 0 2.921875 -1.265625 2.921875 -3.796875 L 2.921875 -19.484375 C 2.921875 -22.015625 4.1875 -23.28125 6.71875 -23.28125 L 16.9375 -23.28125 C 18.320312 -23.28125 19.238281 -22.816406 19.6875 -21.890625 Z M 19.6875 -23.28125 "/></g></g></g><g fill="#004aad" fill-opacity="1"><g transform="translate(210.006593, 233.105829)"><g><path d="M 13.25 -2.828125 L 17.953125 -2.828125 C 19.109375 -2.828125 19.6875 -3.320312 19.6875 -4.3125 L 19.6875 -18.953125 C 19.6875 -19.953125 19.109375 -20.453125 17.953125 -20.453125 L 13.25 -20.453125 C 12.601562 -20.453125 12.191406 -20.351562 12.015625 -20.15625 C 11.847656 -19.96875 11.765625 -19.566406 11.765625 -18.953125 L 11.765625 -4.3125 C 11.765625 -3.675781 11.847656 -3.269531 12.015625 -3.09375 C 12.191406 -2.914062 12.601562 -2.828125 13.25 -2.828125 Z M 28.515625 -1.4375 L 28.5625 -1.4375 L 28.5625 2.96875 C 28.5625 5.5 27.296875 6.765625 24.765625 6.765625 L 4.21875 6.765625 L 4.21875 3.9375 L 18.234375 3.9375 C 18.878906 3.9375 19.289062 3.835938 19.46875 3.640625 C 19.644531 3.453125 19.734375 3.054688 19.734375 2.453125 L 19.734375 -1.0625 L 19.6875 -1.0625 L 19.6875 -1.390625 C 19.238281 -0.460938 18.320312 0 16.9375 0 L 6.71875 0 C 4.1875 0 2.921875 -1.265625 2.921875 -3.796875 L 2.921875 -19.484375 C 2.921875 -22.015625 4.1875 -23.28125 6.71875 -23.28125 L 16.9375 -23.28125 C 18.320312 -23.28125 19.238281 -22.816406 19.6875 -21.890625 L 19.6875 -23.28125 L 28.515625 -23.28125 Z M 28.515625 -1.4375 "/></g></g></g><g fill="#4cacef" fill-opacity="1"><g transform="translate(193.608888, 253.90579)"><g><path d="M 8.03125 -7.875 L 3.84375 -7.875 L 3.84375 -4.53125 L 7.484375 -4.53125 L 7.484375 -3.703125 L 3.84375 -3.703125 L 3.84375 0 L 1.046875 0 L 1.046875 -8.703125 L 8.03125 -8.703125 Z M 8.03125 -7.875 "/></g></g></g><g fill="#4cacef" fill-opacity="1"><g transform="translate(203.978193, 253.90579)"><g><path d="M 1.140625 -8.703125 L 3.9375 -8.703125 L 3.9375 0 L 1.140625 0 Z M 1.140625 -8.703125 "/></g></g></g><g fill="#4cacef" fill-opacity="1"><g transform="translate(211.017359, 253.90579)"><g><path d="M 6.875 -8.703125 L 9.375 -8.703125 L 9.375 0 L 7.0625 0 L 3.546875 -6.1875 L 3.546875 0 L 1.046875 0 L 1.046875 -8.703125 L 3.40625 -8.703125 L 6.875 -2.5 Z M 6.875 -8.703125 "/></g></g></g><g fill="#4cacef" fill-opacity="1"><g transform="translate(223.387549, 253.90579)"><g><path d="M 6.46875 -1.265625 L 6.46875 -7.453125 C 6.46875 -7.640625 6.4375 -7.753906 6.375 -7.796875 C 6.320312 -7.847656 6.207031 -7.875 6.03125 -7.875 L 3.75 -7.875 L 3.75 -0.828125 L 6.03125 -0.828125 C 6.207031 -0.828125 6.320312 -0.851562 6.375 -0.90625 C 6.4375 -0.957031 6.46875 -1.078125 6.46875 -1.265625 Z M 1.046875 -8.703125 L 8.0625 -8.703125 C 8.800781 -8.703125 9.171875 -8.335938 9.171875 -7.609375 L 9.171875 -1.109375 C 9.171875 -0.367188 8.800781 0 8.0625 0 L 1.046875 0 Z M 1.046875 -8.703125 "/></g></g></g><g fill="#4cacef" fill-opacity="1"><g transform="translate(235.4639, 253.90579)"><g><path d="M 3.84375 -0.828125 L 8.21875 -0.828125 L 8.21875 0 L 1.046875 0 L 1.046875 -8.703125 L 8.03125 -8.703125 L 8.03125 -7.875 L 3.84375 -7.875 L 3.84375 -4.875 L 7.46875 -4.875 L 7.46875 -4.046875 L 3.84375 -4.046875 Z M 3.84375 -0.828125 "/></g></g></g><g fill="#4cacef" fill-opacity="1"><g transform="translate(246.113062, 253.90579)"><g><path d="M 3.75 -7.875 L 3.75 -3.953125 L 6.0625 -3.953125 C 6.238281 -3.953125 6.351562 -3.976562 6.40625 -4.03125 C 6.46875 -4.082031 6.5 -4.195312 6.5 -4.375 L 6.5 -7.453125 C 6.5 -7.640625 6.46875 -7.753906 6.40625 -7.796875 C 6.351562 -7.847656 6.238281 -7.875 6.0625 -7.875 Z M 3.75 -3.125 L 3.75 0 L 1.046875 0 L 1.046875 -8.703125 L 8.09375 -8.703125 C 8.832031 -8.703125 9.203125 -8.335938 9.203125 -7.609375 L 9.203125 -4.234375 C 9.203125 -3.492188 8.832031 -3.125 8.09375 -3.125 L 7.46875 -3.125 L 9.4375 0 L 6.625 0 L 4.765625 -3.125 Z M 3.75 -3.125 "/></g></g></g></svg>